<mxfile host="app.diagrams.net" modified="2024-01-01T00:00:00.000Z" agent="5.0" etag="xxx" version="22.1.16" type="device">
  <diagram name="User Registration Flow" id="user-registration-flow">
    <mxGraphModel dx="1422" dy="794" grid="1" gridSize="10" guides="1" tooltips="1" connect="1" arrows="1" fold="1" page="1" pageScale="1" pageWidth="1169" pageHeight="827" math="0" shadow="0">
      <root>
        <mxCell id="0" />
        <mxCell id="1" parent="0" />
        
        <!-- Start -->
        <mxCell id="start" value="Start Registration Process" style="ellipse;whiteSpace=wrap;html=1;fillColor=#d5e8d4;strokeColor=#82b366;" vertex="1" parent="1">
          <mxGeometry x="520" y="40" width="120" height="60" as="geometry" />
        </mxCell>
        
        <!-- User Input Form -->
        <mxCell id="form" value="User Fills Registration Form&#xa;&#xa;• Email Address&#xa;• Password&#xa;• Confirm Password&#xa;• First Name&#xa;• Last Name&#xa;• Phone Number (Optional)&#xa;• OAuth Options (Google/Facebook)" style="rounded=1;whiteSpace=wrap;html=1;fillColor=#fff2cc;strokeColor=#d6b656;" vertex="1" parent="1">
          <mxGeometry x="480" y="140" width="200" height="120" as="geometry" />
        </mxCell>
        
        <!-- Client-side Validation -->
        <mxCell id="client-validation" value="Client-side Validation&#xa;&#xa;• Email format check&#xa;• Password strength check&#xa;• Required fields check&#xa;• Password confirmation match" style="rounded=1;whiteSpace=wrap;html=1;fillColor=#e1d5e7;strokeColor=#9673a6;" vertex="1" parent="1">
          <mxGeometry x="480" y="300" width="200" height="100" as="geometry" />
        </mxCell>
        
        <!-- Validation Decision -->
        <mxCell id="validation-decision" value="Validation&#xa;Passed?" style="rhombus;whiteSpace=wrap;html=1;fillColor=#f8cecc;strokeColor=#b85450;" vertex="1" parent="1">
          <mxGeometry x="520" y="440" width="120" height="80" as="geometry" />
        </mxCell>
        
        <!-- Show Error -->
        <mxCell id="show-error" value="Display Error Message&#xa;Return to Form" style="rounded=1;whiteSpace=wrap;html=1;fillColor=#f8cecc;strokeColor=#b85450;" vertex="1" parent="1">
          <mxGeometry x="320" y="450" width="120" height="60" as="geometry" />
        </mxCell>
        
        <!-- API Request -->
        <mxCell id="api-request" value="Send Registration Request&#xa;POST /api/auth/register" style="rounded=1;whiteSpace=wrap;html=1;fillColor=#dae8fc;strokeColor=#6c8ebf;" vertex="1" parent="1">
          <mxGeometry x="480" y="560" width="200" height="60" as="geometry" />
        </mxCell>
        
        <!-- Server-side Validation -->
        <mxCell id="server-validation" value="Server-side Validation&#xa;&#xa;• Email format validation&#xa;• Password strength validation&#xa;• Required fields validation&#xa;• Rate limiting check" style="rounded=1;whiteSpace=wrap;html=1;fillColor=#e1d5e7;strokeColor=#9673a6;" vertex="1" parent="1">
          <mxGeometry x="480" y="660" width="200" height="100" as="geometry" />
        </mxCell>
        
        <!-- Server Validation Decision -->
        <mxCell id="server-validation-decision" value="Server Validation&#xa;Passed?" style="rhombus;whiteSpace=wrap;html=1;fillColor=#f8cecc;strokeColor=#b85450;" vertex="1" parent="1">
          <mxGeometry x="520" y="800" width="120" height="80" as="geometry" />
        </mxCell>
        
        <!-- Return Server Error -->
        <mxCell id="return-server-error" value="Return Validation Error&#xa;400 Bad Request" style="rounded=1;whiteSpace=wrap;html=1;fillColor=#f8cecc;strokeColor=#b85450;" vertex="1" parent="1">
          <mxGeometry x="320" y="810" width="120" height="60" as="geometry" />
        </mxCell>
        
        <!-- Check Email Exists -->
        <mxCell id="check-email" value="Check if Email Already Exists&#xa;Database Query" style="rounded=1;whiteSpace=wrap;html=1;fillColor=#d5e8d4;strokeColor=#82b366;" vertex="1" parent="1">
          <mxGeometry x="480" y="920" width="200" height="60" as="geometry" />
        </mxCell>
        
        <!-- Email Exists Decision -->
        <mxCell id="email-exists-decision" value="Email Already&#xa;Exists?" style="rhombus;whiteSpace=wrap;html=1;fillColor=#f8cecc;strokeColor=#b85450;" vertex="1" parent="1">
          <mxGeometry x="520" y="1020" width="120" height="80" as="geometry" />
        </mxCell>
        
        <!-- Return Email Error -->
        <mxCell id="return-email-error" value="Return Email Error&#xa;409 Conflict" style="rounded=1;whiteSpace=wrap;html=1;fillColor=#f8cecc;strokeColor=#b85450;" vertex="1" parent="1">
          <mxGeometry x="320" y="1030" width="120" height="60" as="geometry" />
        </mxCell>
        
        <!-- Hash Password -->
        <mxCell id="hash-password" value="Hash Password&#xa;bcrypt/Argon2" style="rounded=1;whiteSpace=wrap;html=1;fillColor=#d5e8d4;strokeColor=#82b366;" vertex="1" parent="1">
          <mxGeometry x="480" y="1140" width="200" height="60" as="geometry" />
        </mxCell>
        
        <!-- Create User Record -->
        <mxCell id="create-user" value="Create User Record&#xa;Database Insert" style="rounded=1;whiteSpace=wrap;html=1;fillColor=#d5e8d4;strokeColor=#82b366;" vertex="1" parent="1">
          <mxGeometry x="480" y="1240" width="200" height="60" as="geometry" />
        </mxCell>
        
        <!-- Generate JWT Token -->
        <mxCell id="generate-jwt" value="Generate JWT Token&#xa;Access + Refresh Tokens" style="rounded=1;whiteSpace=wrap;html=1;fillColor=#d5e8d4;strokeColor=#82b366;" vertex="1" parent="1">
          <mxGeometry x="480" y="1340" width="200" height="60" as="geometry" />
        </mxCell>
        
        <!-- Send Welcome Email -->
        <mxCell id="welcome-email" value="Send Welcome Email&#xa;Email Service (SendGrid)" style="rounded=1;whiteSpace=wrap;html=1;fillColor=#d5e8d4;strokeColor=#82b366;" vertex="1" parent="1">
          <mxGeometry x="480" y="1440" width="200" height="60" as="geometry" />
        </mxCell>
        
        <!-- Success Response -->
        <mxCell id="success-response" value="Return Success Response&#xa;201 Created + JWT Tokens" style="rounded=1;whiteSpace=wrap;html=1;fillColor=#d5e8d4;strokeColor=#82b366;" vertex="1" parent="1">
          <mxGeometry x="480" y="1540" width="200" height="60" as="geometry" />
        </mxCell>
        
        <!-- Store Tokens -->
        <mxCell id="store-tokens" value="Store Tokens in Client&#xa;Local Storage/Cookies" style="rounded=1;whiteSpace=wrap;html=1;fillColor=#fff2cc;strokeColor=#d6b656;" vertex="1" parent="1">
          <mxGeometry x="480" y="1640" width="200" height="60" as="geometry" />
        </mxCell>
        
        <!-- Redirect to Dashboard -->
        <mxCell id="redirect" value="Redirect to Dashboard&#xa;User Logged In" style="rounded=1;whiteSpace=wrap;html=1;fillColor=#d5e8d4;strokeColor=#82b366;" vertex="1" parent="1">
          <mxGeometry x="480" y="1740" width="200" height="60" as="geometry" />
        </mxCell>
        
        <!-- End -->
        <mxCell id="end" value="Registration Complete" style="ellipse;whiteSpace=wrap;html=1;fillColor=#d5e8d4;strokeColor=#82b366;" vertex="1" parent="1">
          <mxGeometry x="520" y="1840" width="120" height="60" as="geometry" />
        </mxCell>
        
        <!-- OAuth Branch -->
        <mxCell id="oauth-branch" value="OAuth Registration&#xa;(Google/Facebook)" style="rounded=1;whiteSpace=wrap;html=1;fillColor=#e1d5e7;strokeColor=#9673a6;" vertex="1" parent="1">
          <mxGeometry x="720" y="300" width="160" height="60" as="geometry" />
        </mxCell>
        
        <!-- OAuth Flow -->
        <mxCell id="oauth-flow" value="OAuth Flow&#xa;• Redirect to OAuth Provider&#xa;• User Authorization&#xa;• Receive Authorization Code&#xa;• Exchange Code for User Data&#xa;• Create/Update User Account" style="rounded=1;whiteSpace=wrap;html=1;fillColor=#e1d5e7;strokeColor=#9673a6;" vertex="1" parent="1">
          <mxGeometry x="720" y="400" width="160" height="120" as="geometry" />
        </mxCell>
        
        <!-- Error Handling -->
        <mxCell id="error-handling" value="Error Handling&#xa;&#xa;• Network errors&#xa;• Server errors (500)&#xa;• Database errors&#xa;• Email service errors&#xa;• OAuth provider errors" style="rounded=1;whiteSpace=wrap;html=1;fillColor=#f8cecc;strokeColor=#b85450;" vertex="1" parent="1">
          <mxGeometry x="720" y="560" width="160" height="100" as="geometry" />
        </mxCell>
        
        <!-- Data Flow Labels -->
        <mxCell id="data-flow-1" value="User Data" style="text;html=1;strokeColor=none;fillColor=none;align=center;verticalAlign=middle;whiteSpace=wrap;rounded=0;" vertex="1" parent="1">
          <mxGeometry x="580" y="110" width="60" height="20" as="geometry" />
        </mxCell>
        
        <mxCell id="data-flow-2" value="Validation Result" style="text;html=1;strokeColor=none;fillColor=none;align=center;verticalAlign=middle;whiteSpace=wrap;rounded=0;" vertex="1" parent="1">
          <mxGeometry x="580" y="270" width="80" height="20" as="geometry" />
        </mxCell>
        
        <mxCell id="data-flow-3" value="API Payload" style="text;html=1;strokeColor=none;fillColor=none;align=center;verticalAlign=middle;whiteSpace=wrap;rounded=0;" vertex="1" parent="1">
          <mxGeometry x="580" y="530" width="60" height="20" as="geometry" />
        </mxCell>
        
        <mxCell id="data-flow-4" value="Hashed Password" style="text;html=1;strokeColor=none;fillColor=none;align=center;verticalAlign=middle;whiteSpace=wrap;rounded=0;" vertex="1" parent="1">
          <mxGeometry x="580" y="1110" width="80" height="20" as="geometry" />
        </mxCell>
        
        <mxCell id="data-flow-5" value="User ID" style="text;html=1;strokeColor=none;fillColor=none;align=center;verticalAlign=middle;whiteSpace=wrap;rounded=0;" vertex="1" parent="1">
          <mxGeometry x="580" y="1210" width="40" height="20" as="geometry" />
        </mxCell>
        
        <mxCell id="data-flow-6" value="JWT Tokens" style="text;html=1;strokeColor=none;fillColor=none;align=center;verticalAlign=middle;whiteSpace=wrap;rounded=0;" vertex="1" parent="1">
          <mxGeometry x="580" y="1310" width="60" height="20" as="geometry" />
        </mxCell>
        
        <!-- Connections -->
        <mxCell id="conn1" value="" style="endArrow=classic;html=1;rounded=0;exitX=0.5;exitY=1;exitDx=0;exitDy=0;entryX=0.5;entryY=0;entryDx=0;entryDy=0;" edge="1" parent="1" source="start" target="form">
          <mxGeometry width="50" height="50" relative="1" as="geometry">
            <mxPoint x="580" y="120" as="sourcePoint" />
            <mxPoint x="630" y="70" as="targetPoint" />
          </mxGeometry>
        </mxCell>
        
        <mxCell id="conn2" value="" style="endArrow=classic;html=1;rounded=0;exitX=0.5;exitY=1;exitDx=0;exitDy=0;entryX=0.5;entryY=0;entryDx=0;entryDy=0;" edge="1" parent="1" source="form" target="client-validation">
          <mxGeometry width="50" height="50" relative="1" as="geometry">
            <mxPoint x="580" y="280" as="sourcePoint" />
            <mxPoint x="630" y="230" as="targetPoint" />
          </mxGeometry>
        </mxCell>
        
        <mxCell id="conn3" value="" style="endArrow=classic;html=1;rounded=0;exitX=0.5;exitY=1;exitDx=0;exitDy=0;entryX=0.5;entryY=0;entryDx=0;entryDy=0;" edge="1" parent="1" source="client-validation" target="validation-decision">
          <mxGeometry width="50" height="50" relative="1" as="geometry">
            <mxPoint x="580" y="420" as="sourcePoint" />
            <mxPoint x="630" y="370" as="targetPoint" />
          </mxGeometry>
        </mxCell>
        
        <mxCell id="conn4" value="No" style="endArrow=classic;html=1;rounded=0;exitX=0;exitY=0.5;exitDx=0;exitDy=0;entryX=1;entryY=0.5;entryDx=0;entryDy=0;" edge="1" parent="1" source="validation-decision" target="show-error">
          <mxGeometry width="50" height="50" relative="1" as="geometry">
            <mxPoint x="520" y="480" as="sourcePoint" />
            <mxPoint x="570" y="430" as="targetPoint" />
          </mxGeometry>
        </mxCell>
        
        <mxCell id="conn5" value="Yes" style="endArrow=classic;html=1;rounded=0;exitX=0.5;exitY=1;exitDx=0;exitDy=0;entryX=0.5;entryY=0;entryDx=0;entryDy=0;" edge="1" parent="1" source="validation-decision" target="api-request">
          <mxGeometry width="50" height="50" relative="1" as="geometry">
            <mxPoint x="580" y="540" as="sourcePoint" />
            <mxPoint x="630" y="490" as="targetPoint" />
          </mxGeometry>
        </mxCell>
        
        <mxCell id="conn6" value="" style="endArrow=classic;html=1;rounded=0;exitX=0.5;exitY=1;exitDx=0;exitDy=0;entryX=0.5;entryY=0;entryDx=0;entryDy=0;" edge="1" parent="1" source="api-request" target="server-validation">
          <mxGeometry width="50" height="50" relative="1" as="geometry">
            <mxPoint x="580" y="640" as="sourcePoint" />
            <mxPoint x="630" y="590" as="targetPoint" />
          </mxGeometry>
        </mxCell>
        
        <mxCell id="conn7" value="" style="endArrow=classic;html=1;rounded=0;exitX=0.5;exitY=1;exitDx=0;exitDy=0;entryX=0.5;entryY=0;entryDx=0;entryDy=0;" edge="1" parent="1" source="server-validation" target="server-validation-decision">
          <mxGeometry width="50" height="50" relative="1" as="geometry">
            <mxPoint x="580" y="780" as="sourcePoint" />
            <mxPoint x="630" y="730" as="targetPoint" />
          </mxGeometry>
        </mxCell>
        
        <mxCell id="conn8" value="No" style="endArrow=classic;html=1;rounded=0;exitX=0;exitY=0.5;exitDx=0;exitDy=0;entryX=1;entryY=0.5;entryDx=0;entryDy=0;" edge="1" parent="1" source="server-validation-decision" target="return-server-error">
          <mxGeometry width="50" height="50" relative="1" as="geometry">
            <mxPoint x="520" y="840" as="sourcePoint" />
            <mxPoint x="570" y="790" as="targetPoint" />
          </mxGeometry>
        </mxCell>
        
        <mxCell id="conn9" value="Yes" style="endArrow=classic;html=1;rounded=0;exitX=0.5;exitY=1;exitDx=0;exitDy=0;entryX=0.5;entryY=0;entryDx=0;entryDy=0;" edge="1" parent="1" source="server-validation-decision" target="check-email">
          <mxGeometry width="50" height="50" relative="1" as="geometry">
            <mxPoint x="580" y="900" as="sourcePoint" />
            <mxPoint x="630" y="850" as="targetPoint" />
          </mxGeometry>
        </mxCell>
        
        <mxCell id="conn10" value="" style="endArrow=classic;html=1;rounded=0;exitX=0.5;exitY=1;exitDx=0;exitDy=0;entryX=0.5;entryY=0;entryDx=0;entryDy=0;" edge="1" parent="1" source="check-email" target="email-exists-decision">
          <mxGeometry width="50" height="50" relative="1" as="geometry">
            <mxPoint x="580" y="1000" as="sourcePoint" />
            <mxPoint x="630" y="950" as="targetPoint" />
          </mxGeometry>
        </mxCell>
        
        <mxCell id="conn11" value="Yes" style="endArrow=classic;html=1;rounded=0;exitX=0;exitY=0.5;exitDx=0;exitDy=0;entryX=1;entryY=0.5;entryDx=0;entryDy=0;" edge="1" parent="1" source="email-exists-decision" target="return-email-error">
          <mxGeometry width="50" height="50" relative="1" as="geometry">
            <mxPoint x="520" y="1060" as="sourcePoint" />
            <mxPoint x="570" y="1010" as="targetPoint" />
          </mxGeometry>
        </mxCell>
        
        <mxCell id="conn12" value="No" style="endArrow=classic;html=1;rounded=0;exitX=0.5;exitY=1;exitDx=0;exitDy=0;entryX=0.5;entryY=0;entryDx=0;entryDy=0;" edge="1" parent="1" source="email-exists-decision" target="hash-password">
          <mxGeometry width="50" height="50" relative="1" as="geometry">
            <mxPoint x="580" y="1120" as="sourcePoint" />
            <mxPoint x="630" y="1070" as="targetPoint" />
          </mxGeometry>
        </mxCell>
        
        <mxCell id="conn13" value="" style="endArrow=classic;html=1;rounded=0;exitX=0.5;exitY=1;exitDx=0;exitDy=0;entryX=0.5;entryY=0;entryDx=0;entryDy=0;" edge="1" parent="1" source="hash-password" target="create-user">
          <mxGeometry width="50" height="50" relative="1" as="geometry">
            <mxPoint x="580" y="1220" as="sourcePoint" />
            <mxPoint x="630" y="1170" as="targetPoint" />
          </mxGeometry>
        </mxCell>
        
        <mxCell id="conn14" value="" style="endArrow=classic;html=1;rounded=0;exitX=0.5;exitY=1;exitDx=0;exitDy=0;entryX=0.5;entryY=0;entryDx=0;entryDy=0;" edge="1" parent="1" source="create-user" target="generate-jwt">
          <mxGeometry width="50" height="50" relative="1" as="geometry">
            <mxPoint x="580" y="1320" as="sourcePoint" />
            <mxPoint x="630" y="1270" as="targetPoint" />
          </mxGeometry>
        </mxCell>
        
        <mxCell id="conn15" value="" style="endArrow=classic;html=1;rounded=0;exitX=0.5;exitY=1;exitDx=0;exitDy=0;entryX=0.5;entryY=0;entryDx=0;entryDy=0;" edge="1" parent="1" source="generate-jwt" target="welcome-email">
          <mxGeometry width="50" height="50" relative="1" as="geometry">
            <mxPoint x="580" y="1420" as="sourcePoint" />
            <mxPoint x="630" y="1370" as="targetPoint" />
          </mxGeometry>
        </mxCell>
        
        <mxCell id="conn16" value="" style="endArrow=classic;html=1;rounded=0;exitX=0.5;exitY=1;exitDx=0;exitDy=0;entryX=0.5;entryY=0;entryDx=0;entryDy=0;" edge="1" parent="1" source="welcome-email" target="success-response">
          <mxGeometry width="50" height="50" relative="1" as="geometry">
            <mxPoint x="580" y="1520" as="sourcePoint" />
            <mxPoint x="630" y="1470" as="targetPoint" />
          </mxGeometry>
        </mxCell>
        
        <mxCell id="conn17" value="" style="endArrow=classic;html=1;rounded=0;exitX=0.5;exitY=1;exitDx=0;exitDy=0;entryX=0.5;entryY=0;entryDx=0;entryDy=0;" edge="1" parent="1" source="success-response" target="store-tokens">
          <mxGeometry width="50" height="50" relative="1" as="geometry">
            <mxPoint x="580" y="1620" as="sourcePoint" />
            <mxPoint x="630" y="1570" as="targetPoint" />
          </mxGeometry>
        </mxCell>
        
        <mxCell id="conn18" value="" style="endArrow=classic;html=1;rounded=0;exitX=0.5;exitY=1;exitDx=0;exitDy=0;entryX=0.5;entryY=0;entryDx=0;entryDy=0;" edge="1" parent="1" source="store-tokens" target="redirect">
          <mxGeometry width="50" height="50" relative="1" as="geometry">
            <mxPoint x="580" y="1720" as="sourcePoint" />
            <mxPoint x="630" y="1670" as="targetPoint" />
          </mxGeometry>
        </mxCell>
        
        <mxCell id="conn19" value="" style="endArrow=classic;html=1;rounded=0;exitX=0.5;exitY=1;exitDx=0;exitDy=0;entryX=0.5;entryY=0;entryDx=0;entryDy=0;" edge="1" parent="1" source="redirect" target="end">
          <mxGeometry width="50" height="50" relative="1" as="geometry">
            <mxPoint x="580" y="1820" as="sourcePoint" />
            <mxPoint x="630" y="1770" as="targetPoint" />
          </mxGeometry>
        </mxCell>
        
        <!-- OAuth Connections -->
        <mxCell id="oauth-conn1" value="OAuth Option" style="endArrow=classic;html=1;rounded=0;exitX=1;exitY=0.5;exitDx=0;exitDy=0;entryX=0;entryY=0.5;entryDx=0;entryDy=0;" edge="1" parent="1" source="client-validation" target="oauth-branch">
          <mxGeometry width="50" height="50" relative="1" as="geometry">
            <mxPoint x="640" y="350" as="sourcePoint" />
            <mxPoint x="690" y="300" as="targetPoint" />
          </mxGeometry>
        </mxCell>
        
        <mxCell id="oauth-conn2" value="" style="endArrow=classic;html=1;rounded=0;exitX=0.5;exitY=1;exitDx=0;exitDy=0;entryX=0.5;entryY=0;entryDx=0;entryDy=0;" edge="1" parent="1" source="oauth-branch" target="oauth-flow">
          <mxGeometry width="50" height="50" relative="1" as="geometry">
            <mxPoint x="800" y="380" as="sourcePoint" />
            <mxPoint x="850" y="330" as="targetPoint" />
          </mxGeometry>
        </mxCell>
        
        <!-- Error Handling Connections -->
        <mxCell id="error-conn1" value="Error" style="endArrow=classic;html=1;rounded=0;exitX=1;exitY=0.5;exitDx=0;exitDy=0;entryX=0;entryY=0.5;entryDx=0;entryDy=0;" edge="1" parent="1" source="api-request" target="error-handling">
          <mxGeometry width="50" height="50" relative="1" as="geometry">
            <mxPoint x="680" y="590" as="sourcePoint" />
            <mxPoint x="730" y="540" as="targetPoint" />
          </mxGeometry>
        </mxCell>
        
        <!-- Return to Form -->
        <mxCell id="return-conn" value="Return to Form" style="endArrow=classic;html=1;rounded=0;exitX=0.5;exitY=1;exitDx=0;exitDy=0;entryX=0.5;entryY=0;entryDx=0;entryDy=0;" edge="1" parent="1" source="show-error" target="form">
          <mxGeometry width="50" height="50" relative="1" as="geometry">
            <mxPoint x="380" y="530" as="sourcePoint" />
            <mxPoint x="430" y="480" as="targetPoint" />
            <Array as="points">
              <mxPoint x="380" y="530" />
              <mxPoint x="580" y="530" />
            </Array>
          </mxGeometry>
        </mxCell>
        
        <!-- Legend -->
        <mxCell id="legend-title" value="Flowchart Legend" style="text;html=1;strokeColor=none;fillColor=none;align=center;verticalAlign=middle;whiteSpace=wrap;rounded=0;fontStyle=1;fontSize=14;" vertex="1" parent="1">
          <mxGeometry x="40" y="40" width="120" height="30" as="geometry" />
        </mxCell>
        
        <mxCell id="legend-start" value="Start/End" style="ellipse;whiteSpace=wrap;html=1;fillColor=#d5e8d4;strokeColor=#82b366;" vertex="1" parent="1">
          <mxGeometry x="40" y="80" width="80" height="40" as="geometry" />
        </mxCell>
        
        <mxCell id="legend-process" value="Process" style="rounded=1;whiteSpace=wrap;html=1;fillColor=#d5e8d4;strokeColor=#82b366;" vertex="1" parent="1">
          <mxGeometry x="40" y="140" width="80" height="40" as="geometry" />
        </mxCell>
        
        <mxCell id="legend-input" value="Input/Output" style="rounded=1;whiteSpace=wrap;html=1;fillColor=#fff2cc;strokeColor=#d6b656;" vertex="1" parent="1">
          <mxGeometry x="40" y="200" width="80" height="40" as="geometry" />
        </mxCell>
        
        <mxCell id="legend-decision" value="Decision" style="rhombus;whiteSpace=wrap;html=1;fillColor=#f8cecc;strokeColor=#b85450;" vertex="1" parent="1">
          <mxGeometry x="40" y="260" width="80" height="40" as="geometry" />
        </mxCell>
        
        <mxCell id="legend-error" value="Error Handling" style="rounded=1;whiteSpace=wrap;html=1;fillColor=#f8cecc;strokeColor=#b85450;" vertex="1" parent="1">
          <mxGeometry x="40" y="320" width="80" height="40" as="geometry" />
        </mxCell>
        
        <mxCell id="legend-oauth" value="OAuth Flow" style="rounded=1;whiteSpace=wrap;html=1;fillColor=#e1d5e7;strokeColor=#9673a6;" vertex="1" parent="1">
          <mxGeometry x="40" y="380" width="80" height="40" as="geometry" />
        </mxCell>
        
      </root>
    </mxGraphModel>
  </diagram>
</mxfile> 